<svg width="800" height="800" viewBox="0 0 800 800" fill="none" xmlns="http://www.w3.org/2000/svg">
<path d="M400 66.6667C216 66.6667 66.6666 216 66.6666 400C66.6666 584 216 733.333 400 733.333C584 733.333 733.333 584 733.333 400C733.333 216 584 66.6667 400 66.6667ZM400 166.667C455.333 166.667 500 211.333 500 266.667C500 322 455.333 366.667 400 366.667C344.667 366.667 300 322 300 266.667C300 211.333 344.667 166.667 400 166.667ZM400 640C316.667 640 243 597.333 200 532.667C201 466.333 333.333 430 400 430C466.333 430 599 466.333 600 532.667C557 597.333 483.333 640 400 640Z" fill="#00657C"/>
</svg>
