<svg width="667" height="667" viewBox="0 0 667 667" fill="none" xmlns="http://www.w3.org/2000/svg">
<path d="M333.333 0C149.333 0 0 149.333 0 333.333C0 517.333 149.333 666.667 333.333 666.667C517.333 666.667 666.667 517.333 666.667 333.333C666.667 149.333 517.333 0 333.333 0ZM333.333 100C388.667 100 433.333 144.667 433.333 200C433.333 255.333 388.667 300 333.333 300C278 300 233.333 255.333 233.333 200C233.333 144.667 278 100 333.333 100ZM333.333 573.333C250 573.333 176.333 530.667 133.333 466C134.333 399.667 266.667 363.333 333.333 363.333C399.667 363.333 532.333 399.667 533.333 466C490.333 530.667 416.667 573.333 333.333 573.333Z" fill="#00657C"/>
<rect width="33.2425" height="664.85" transform="matrix(0.71868 -0.695341 0.71868 0.695341 82 113.92)" fill="black"/>
<rect width="33.2425" height="664.85" transform="matrix(0.71868 0.695341 -0.71868 0.695341 560.109 90)" fill="black"/>
</svg>
